<svg xmlns="http://www.w3.org/2000/svg" width="50" height="50" version="1.1" viewBox="0 0 13.229 13.229"><metadata/><circle cx="6.615" cy="6.615" r="6.085" fill="#3b36eb" stroke-width=".369"/><path fill-opacity="0" stroke-width=".031" d="m5.9996 11.592c-2.8738-0.32525-5.0451-2.8556-4.9157-5.7287 0.11475-2.5485 1.9278-4.6892 4.4045-5.2004 1.9456-0.40162 3.9839 0.28117 5.2846 1.7702 1.6542 1.8937 1.8383 4.6297 0.45198 6.7146-1.1459 1.7233-3.1818 2.6757-5.2253 2.4444z"/><path fill-opacity="0" stroke-width=".031" d="m5.9996 11.592c-2.8738-0.32525-5.0451-2.8556-4.9157-5.7287 0.11475-2.5485 1.9278-4.6892 4.4045-5.2004 1.9456-0.40162 3.9839 0.28117 5.2846 1.7702 1.6542 1.8937 1.8383 4.6297 0.45198 6.7146-1.1459 1.7233-3.1818 2.6757-5.2253 2.4444z"/><path fill-opacity="0" stroke-width=".031" d="m5.9996 11.592c-2.8738-0.32525-5.0451-2.8556-4.9157-5.7287 0.11475-2.5485 1.9278-4.6892 4.4045-5.2004 1.9456-0.40162 3.9839 0.28117 5.2846 1.7702 1.6542 1.8937 1.8383 4.6297 0.45198 6.7146-1.1459 1.7233-3.1818 2.6757-5.2253 2.4444z"/></svg>