<svg xmlns="http://www.w3.org/2000/svg" xmlns:svg="http://www.w3.org/2000/svg" id="svg16" class="ionicon" version="1.1" viewBox="0 0 512 512"><metadata id="metadata22"/><title id="title10">Create</title><path id="path14" fill="#3ab793" d="m 472.98112,31.534908 a 28.558293,29.300193 0 0 0 -41.29039,-1.021675 l -21.99664,22.458616 a 14.2258,14.595363 0 0 0 0,20.634195 l 20.16507,20.65244 a 14.2258,14.595363 0 0 0 20.16507,0 l 21.44539,-21.893046 c 10.84717,-11.11072 11.86077,-29.208971 1.5115,-40.83053 z M 365.22068,98.582361 44.215505,427.34293 a 16.004025,16.419784 0 0 0 -4.1077,7.16997 l -14.848179,45.37334 a 6.9528598,7.1334841 0 0 0 8.642174,8.86669 l 44.188891,-15.23392 a 16.004025,16.419784 0 0 0 6.988425,-4.21441 L 405.51526,139.92373 a 16.004025,16.419784 0 0 0 0,-23.09716 L 387.82192,98.582361 a 16.004025,16.419784 0 0 0 -22.60124,0 z" style="stroke-width:1.80118"/></svg>