<svg xmlns="http://www.w3.org/2000/svg" xmlns:svg="http://www.w3.org/2000/svg" id="svg65" width="200" height="200" version="1.1" viewBox="0 0 200 200"><metadata id="metadata69"/><title id="title24">Artboard Copy 6@960w</title><desc id="desc26">Created with Sketch.</desc><defs id="defs55"><radialGradient id="radialGradient-1" cx="181.735" cy="21.917" r="344.002" fx="181.735" fy="21.917" gradientUnits="userSpaceOnUse"><stop id="stop28" offset="0%" stop-color="#2F80F2"/><stop id="stop30" offset="99.966%" stop-color="#A942B5"/></radialGradient><radialGradient id="radialGradient-2" cx="0" cy="4.296" r="318.215" fx="0" fy="4.296" gradientUnits="userSpaceOnUse"><stop id="stop33" offset="0%" stop-color="#45F9DE"/><stop id="stop35" offset="100%" stop-color="#A942B5" stop-opacity="0"/></radialGradient><radialGradient id="radialGradient-3" cx="200" cy="200" r="192.087" fx="200" fy="200" gradientUnits="userSpaceOnUse"><stop id="stop38" offset="0%" stop-color="#E957C5"/><stop id="stop40" offset="100%" stop-color="#AC43B6" stop-opacity=".044"/><stop id="stop42" offset="100%" stop-color="#A942B5" stop-opacity="0"/></radialGradient><radialGradient id="radialGradient-4" cx="100" cy="100" r="115.304" fx="100" fy="100" gradientUnits="userSpaceOnUse"><stop id="stop45" offset="0%" stop-color="#000" stop-opacity=".185"/><stop id="stop47" offset="100%" stop-color="#101010"/></radialGradient><linearGradient id="linearGradient-5" x1="188.475" x2="0" y1="117.932" y2="0" gradientUnits="userSpaceOnUse"><stop id="stop50" offset="0%" stop-color="#FFF" stop-opacity=".185"/><stop id="stop52" offset="100%" stop-color="#FFF"/></linearGradient></defs><g id="Artboard-Copy-6" fill="none" fill-rule="evenodd" stroke="none" stroke-width="1" transform="matrix(0.90884354,0,0,0.91428571,10.340135,7.238095)"><g id="Group"><rect id="Rectangle" width="200" height="200" x="0" y="0" fill="url(#radialGradient-1)" rx="16" style="fill:url(#radialGradient-1)"/><rect id="Rectangle-Copy-2" width="200" height="200" x="0" y="0" fill="url(#radialGradient-2)" fill-opacity=".57" rx="16" style="fill:url(#radialGradient-2)"/><rect id="Rectangle-Copy-3" width="200" height="200" x="0" y="0" fill="url(#radialGradient-3)" fill-opacity=".68" rx="16" style="fill:url(#radialGradient-3)"/><rect id="Rectangle-Copy" width="200" height="200" x="0" y="0" fill="url(#radialGradient-4)" fill-opacity=".08" rx="16" style="fill:url(#radialGradient-4)"/><rect id="Rectangle-Copy-4" width="200" height="200" x="0" y="0" fill="url(#linearGradient-5)" fill-opacity=".03" rx="16" style="fill:url(#linearGradient-5)"/></g><polygon id="K" fill="#fff" fill-rule="nonzero" points="129 170 161.6 170 161.6 168.4 94.2 97.8 156.4 30.8 156.4 30 123.6 30 70.4 89.2 70.4 30 44 30 44 170 70.4 170 70.4 108"/></g></svg>