<svg xmlns="http://www.w3.org/2000/svg" xmlns:svg="http://www.w3.org/2000/svg" id="svg93" width="20" height="20" version="1.1" viewBox="0 0 20 20"><metadata id="metadata99"/><title id="title77">Fichier 1</title><g id="Calque_2" data-name="Calque 2" transform="matrix(0.94832497,0,0,0.88145141,0.43921529,1.3016855)" style="fill:#fff"><g id="Calque_1-2" data-name="Calque 1" style="fill:#fff"><g id="g89" style="fill:#fff"><path id="Shape" d="M 16.7,0 H 7.59 v 12.29 h 12.3 V 3.18 A 3.18,3.18 0 0 0 16.7,0 Z" style="fill:#fff"/><path style="fill:#fff" id="path80" d="M 4.75,0 H 3.18 A 3.18,3.18 0 0 0 0,3.18 v 1.57 h 4.75 z"/><polygon id="Rectangle-path" points="0 7.59 4.75 7.59 4.75 12.34 0 12.34" style="fill:#fff"/><path style="fill:#fff" id="path83" d="m 15.18,19.89 h 1.57 a 3.18,3.18 0 0 0 3.18,-3.19 v -1.52 h -4.75 z"/><polygon style="fill:#fff" id="polygon85" points="7.59 15.18 12.34 15.18 12.34 19.93 7.59 19.93"/><path style="fill:#fff" id="path87" d="m 0,15.18 v 1.57 a 3.18,3.18 0 0 0 3.18,3.18 h 1.57 v -4.75 z"/></g></g></g></svg>