<svg xmlns="http://www.w3.org/2000/svg" xmlns:svg="http://www.w3.org/2000/svg" id="svg166" width="60" height="55" fill="none" version="1.1" viewBox="0 0 45 40"><metadata id="metadata172"/><path id="path108" fill="#e17726" stroke="#e17726" stroke-linecap="round" stroke-linejoin="round" stroke-width=".315" d="M 42.032,1.0327312 25.182278,13.094852 28.315631,5.9862524 Z"/><path id="path110" fill="#e27625" stroke="#e27625" stroke-linecap="round" stroke-linejoin="round" stroke-width=".315" d="M 3.1659887,1.0327312 19.865689,13.207427 16.882435,5.9862399 Z"/><path id="path112" fill="#e27625" stroke="#e27625" stroke-linecap="round" stroke-linejoin="round" stroke-width=".315" d="m 35.965043,29.000648 -4.483218,6.626142 9.599804,2.557195 2.750021,-9.038493 z"/><path id="path114" fill="#e27625" stroke="#e27625" stroke-linecap="round" stroke-linejoin="round" stroke-width=".315" d="M 1.3825925,29.145492 4.1158597,38.183985 13.69905,35.62679 9.2324325,29.000648 Z"/><path id="path116" fill="#e27625" stroke="#e27625" stroke-linecap="round" stroke-linejoin="round" stroke-width=".315" d="m 13.182299,17.807101 -2.66657,3.89208 9.499802,0.418153 -0.316619,-9.890933 z"/><path id="path118" fill="#e27625" stroke="#e27625" stroke-linecap="round" stroke-linejoin="round" stroke-width=".315" d="m 32.015126,17.807226 -6.616423,-5.6933 -0.216682,10.003531 9.499738,-0.418152 z"/><path id="path120" fill="#e27625" stroke="#e27625" stroke-linecap="round" stroke-linejoin="round" stroke-width=".315" d="m 13.699179,35.62679 5.749824,-2.685781 -4.949808,-3.731223 z"/><path id="path122" fill="#e27625" stroke="#e27625" stroke-linecap="round" stroke-linejoin="round" stroke-width=".315" d="m 25.748935,32.941009 5.733146,2.685781 -0.783338,-6.417004 z"/><path id="path124" fill="#d5bfb2" stroke="#d5bfb2" stroke-linecap="round" stroke-linejoin="round" stroke-width=".315" d="m 31.482081,35.627038 -5.733146,-2.685781 0.46659,3.602514 -0.05003,1.527888 z"/><path id="path126" fill="#d5bfb2" stroke="#d5bfb2" stroke-linecap="round" stroke-linejoin="round" stroke-width=".315" d="m 13.699179,35.627038 5.333267,2.444621 -0.03336,-1.527888 0.449912,-3.602514 z"/><path id="path128" fill="#233447" stroke="#233447" stroke-linecap="round" stroke-linejoin="round" stroke-width=".315" d="m 19.132255,26.829583 -4.766611,-1.350896 3.366584,-1.495742 z"/><path id="path130" fill="#233447" stroke="#233447" stroke-linecap="round" stroke-linejoin="round" stroke-width=".315" d="m 26.065554,26.829583 1.400028,-2.846638 3.38326,1.495742 z"/><path id="path132" fill="#cc6228" stroke="#cc6228" stroke-linecap="round" stroke-linejoin="round" stroke-width=".315" d="m 13.69905,35.62679 0.833371,-6.626142 -5.2999115,0.144844 z"/><path id="path134" fill="#cc6228" stroke="#cc6228" stroke-linecap="round" stroke-linejoin="round" stroke-width=".315" d="m 30.66526,29.000648 0.816693,6.626142 4.483219,-6.481298 z"/><path id="path136" fill="#cc6228" stroke="#cc6228" stroke-linecap="round" stroke-linejoin="round" stroke-width=".315" d="m 34.681759,21.699057 -9.499738,0.418152 0.883276,4.712374 1.400027,-2.846763 3.383262,1.495742 z"/><path id="path138" fill="#cc6228" stroke="#cc6228" stroke-linecap="round" stroke-linejoin="round" stroke-width=".315" d="m 14.365644,25.478562 3.366584,-1.495742 1.400027,2.846763 0.883276,-4.712374 -9.499802,-0.418152 z"/><path id="path140" fill="#e27525" stroke="#e27525" stroke-linecap="round" stroke-linejoin="round" stroke-width=".315" d="m 10.516037,21.699057 3.983285,7.510729 -0.133421,-3.731224 z"/><path id="path142" fill="#e27525" stroke="#e27525" stroke-linecap="round" stroke-linejoin="round" stroke-width=".315" d="m 30.848842,25.478562 -0.149971,3.731224 3.983274,-7.510729 z"/><path id="path144" fill="#e27525" stroke="#e27525" stroke-linecap="round" stroke-linejoin="round" stroke-width=".315" d="m 20.016044,22.117209 -0.883404,4.712374 1.116635,5.564564 0.250038,-7.333737 z"/><path id="path146" fill="#e27525" stroke="#e27525" stroke-linecap="round" stroke-linejoin="round" stroke-width=".315" d="m 25.182278,22.117209 -0.466719,2.92719 0.233359,7.349748 1.116636,-5.564564 z"/><path id="path148" fill="#f5841f" stroke="#f5841f" stroke-linecap="round" stroke-linejoin="round" stroke-width=".315" d="m 26.065554,26.829707 -1.116636,5.564564 0.800017,0.546862 4.949936,-3.731223 0.149971,-3.731223 z"/><path id="path150" fill="#f5841f" stroke="#f5841f" stroke-linecap="round" stroke-linejoin="round" stroke-width=".315" d="m 14.365644,25.478687 0.133422,3.731223 4.949809,3.731223 0.800015,-0.546862 -1.116635,-5.564564 z"/><path id="path152" fill="#c0ac9d" stroke="#c0ac9d" stroke-linecap="round" stroke-linejoin="round" stroke-width=".315" d="m 26.16562,38.071534 0.0499,-1.527888 -0.433235,-0.353859 h -6.366514 l -0.416685,0.353859 0.03336,1.527888 -5.333267,-2.44462 1.866618,1.479606 3.783268,2.525048 h 6.48313 l 3.799947,-2.525048 1.849939,-1.479606 z"/><path id="path154" fill="#161616" stroke="#161616" stroke-linecap="round" stroke-linejoin="round" stroke-width=".315" d="M 25.748806,32.941009 24.948791,32.394271 H 20.24889 l -0.799887,0.546738 -0.450041,3.602637 0.416685,-0.353859 h 6.366514 l 0.433364,0.353859 z"/><path id="path156" fill="#763e1a" stroke="#763e1a" stroke-linecap="round" stroke-linejoin="round" stroke-width=".315" d="M 42.7485,13.882875 44.165205,7.2246234 42.031871,1.0327312 25.748935,12.692836 l 6.266447,5.114265 8.849822,2.492902 1.950006,-2.203336 -0.84992,-0.595143 1.349866,-1.19004 -1.033247,-0.772012 1.349995,-0.99716 z"/><path id="path158" fill="#763e1a" stroke="#763e1a" stroke-linecap="round" stroke-linejoin="round" stroke-width=".315" d="m 1.0327331,7.2246234 1.4333059,6.6582516 -0.9166441,0.659437 1.3666337,0.99716 -1.0333109,0.772012 1.3499689,1.19004 -0.8499848,0.595143 1.9499679,2.203336 8.8498853,-2.492902 6.266448,-5.114265 L 3.1660271,1.0327312 Z"/><path id="path160" fill="#f5841f" stroke="#f5841f" stroke-linecap="round" stroke-linejoin="round" stroke-width=".315" d="m 40.865331,20.299879 -8.849821,-2.492778 2.666635,3.89208 -3.983274,7.510605 5.266557,-0.06429 h 7.86648 z"/><path id="path162" fill="#f5841f" stroke="#f5841f" stroke-linecap="round" stroke-linejoin="round" stroke-width=".315" d="m 13.182299,17.807101 -8.8497704,2.492778 -2.9499361,8.845613 h 7.84984 l 5.2665055,0.06429 -3.983196,-7.510605 z"/><path id="path164" fill="#f5841f" stroke="#f5841f" stroke-linecap="round" stroke-linejoin="round" stroke-width=".315" d="m 25.18215,22.117334 0.566656,-9.424623 2.566568,-6.7064834 H 16.882307 l 2.566568,6.7064834 0.566656,9.424623 0.216681,2.959211 0.01668,7.317726 h 4.699901 l 0.01668,-7.317726 z"/></svg>