<svg xmlns="http://www.w3.org/2000/svg" width="69.995" height="69.996" viewBox="0 0 69.995 69.996"><g id="nounbondings_ic" transform="translate(-1229.5 -577.004)"><rect id="사각형_1331" width="69.995" height="69.995" fill="none" data-name="사각형 1331" transform="translate(1229.5 577.004)"/><g id="타원_147" fill="none" stroke="#b2b6bc" stroke-width="1.8" data-name="타원 147" transform="translate(1266.441 584.269)"><circle cx="12.261" cy="12.261" r="12.261" stroke="none"/><circle cx="12.261" cy="12.261" r="11.361" fill="none"/></g><g id="그룹_1783" data-name="그룹 1783" transform="translate(1278.716 588.533) rotate(45)"><line id="선_24" x2="11.327" fill="none" stroke="#f31963" stroke-linecap="round" stroke-width="1.8" data-name="선 24" transform="translate(0 5.664)"/><line id="선_25" x2="11.327" fill="none" stroke="#f31963" stroke-linecap="round" stroke-width="1.8" data-name="선 25" transform="translate(5.664 0) rotate(90)"/></g><g id="그룹_1782" data-name="그룹 1782" transform="translate(887 492.486)"><path id="패스_1550" fill="none" stroke="#b2b6bc" stroke-linecap="round" stroke-miterlimit="10" stroke-width="2" d="M395.969,119.565v14.046a6.924,6.924,0,0,1-6.9,6.9H364.9a6.924,6.924,0,0,1-6.9-6.9V106a6.924,6.924,0,0,1,6.9-6.9h11.889" data-name="패스 1550"/><path id="패스_1551" fill="none" stroke="#b2b6bc" stroke-linecap="round" stroke-width="2" d="M0,0H12.273" data-name="패스 1551" transform="translate(365.287 112.134)"/><line id="선_144" x2="23.395" fill="none" stroke="#b2b6bc" stroke-linecap="round" stroke-miterlimit="10" stroke-width="2" data-name="선 144" transform="translate(365.287 119.804)"/><line id="선_145" x2="17.45" fill="none" stroke="#b2b6bc" stroke-linecap="round" stroke-miterlimit="10" stroke-width="2" data-name="선 145" transform="translate(365.287 127.474)"/></g></g></svg>