<svg xmlns="http://www.w3.org/2000/svg" xmlns:svg="http://www.w3.org/2000/svg" xmlns:xlink="http://www.w3.org/1999/xlink" id="svg38" width="145" height="40" version="1.1" viewBox="0 0 220 130"><metadata id="metadata42"/><defs id="defs8"><linearGradient id="a" x1="35.303" x2="35.303" y1="15.997" y2="40.514" gradientTransform="matrix(-8.4543497e-4,0.29664266,3.371032,0.00960748,-52.969767,12.22358)" gradientUnits="userSpaceOnUse"><stop id="stop2" offset="0%"/><stop id="stop4" offset="100%" stop-color="#FFF"/></linearGradient><path id="b" d="m 91,0 h 34 a 4,4 0 0 1 4,4 V 112.144 C 129,123.663 119.663,133 108.144,133 h -0.288 C 96.337,133 87,123.663 87,112.144 V 4 a 4,4 0 0 1 4,-4 z"/></defs><g id="g36" transform="matrix(1.2882901,0,0,1.4176054,-125.47444,28.334803)" style="display:inline;fill:none;fill-rule:evenodd"><path id="path10" d="m 127.856,31.44 a 1,1 0 0 1 -1,1 H 100.63 a 5,5 0 0 1 -5,-5 v -8.486 a 5,5 0 0 1 5,-5 h 26.225 a 1,1 0 0 1 1,1 v 16.485 z" style="stroke:#fff;stroke-width:2;stroke-opacity:1"/><path id="path12" d="M 95.247,26.231 H 84.318 v -6.435 h 10.93 v 6.435 z" style="stroke:#fff;stroke-width:2;stroke-opacity:1"/><path id="path14" d="M 127.923,28.726 V 17.471 l 6.977,0.083 a 1,1 0 0 1 0.988,1 v 9.266 a 1,1 0 0 1 -1.012,0.988 l -6.953,-0.083 z" style="stroke:#1d2027;stroke-width:2"/><path id="path16" d="m 0.93553186,19.213239 -0.004606,1.615993 82.64966514,0.235552 0.0046,-1.615993 z m -0.0161225,5.656977 -0.004606,1.615993 82.64966464,0.235552 0.0046,-1.615993 z" style="opacity:1;fill:url(#a);fill-rule:evenodd;stroke:none;stroke-opacity:1"/><g id="g34" transform="rotate(-90,128.59,1.975)"><rect id="rect18" width="4.492" height="17.12" x="125.336" y="15.505" rx="2" style="fill:#3ab793;fill-opacity:1"/><rect id="rect20" width="4.492" height="17.12" x="125.336" y="70.094" rx="2" style="fill:#3ab793;fill-opacity:1"/><use id="use22" width="100%" height="100%" x="0" y="0" xlink:href="#b" style="fill:#fff"/><path id="path24" stroke-linejoin="square" d="M 91,1 A 3,3 0 0 0 88,4 V 112.144 C 88,123.11 96.89,132 107.856,132 h 0.288 C 119.11,132 128,123.11 128,112.144 V 4 a 3,3 0 0 0 -3,-3 z" style="fill:#3ab793;fill-opacity:.15;stroke:#3ab793;stroke-width:2;stroke-opacity:1"/><rect id="rect26" width="21" height="62" x="97.5" y="21.5" rx="1.6" style="fill:#fff;stroke:#3ab7d2;stroke-opacity:1"/><path id="path30" d="M 110.43235,92.546013 C 99.647027,90.564771 89.297116,97.703127 87.315874,108.48844 L 65.899552,225.1002 a 3,3 0 0 0 2.409189,3.49288 l 33.155849,6.08861 a 3,3 0 0 0 3.49288,-2.40919 l 21.41632,-116.61176 c 1.98124,-10.78532 -5.15662,-21.134353 -15.94193,-23.115597 z" style="fill:#fff;stroke:#3ab793;stroke-width:2;stroke-opacity:1"/><ellipse id="ellipse32" cx="108.016" cy="111.123" rx="10.57" ry="10.644" style="stroke:#3ab793"/></g></g><text style="font-style:normal;font-weight:400;font-size:26px;line-height:1.25;font-family:sans-serif;letter-spacing:0;word-spacing:0;fill:#000;fill-opacity:1;stroke:none;stroke-width:1.79413843" id="text925" x="80.306" y="72.543" transform="scale(1.0709613,0.93374055)" xml:space="preserve"><tspan id="tspan923" x="80.306" y="72.543" style="font-size:21.66666603px;fill:#000;fill-opacity:1;stroke-width:1.79413843">TX</tspan></text></svg>