<svg xmlns="http://www.w3.org/2000/svg" width="32" height="32" viewBox="0 0 32 32"><g id="send_ic" transform="translate(-297 -660)"><rect id="사각형_1348" width="32" height="32" fill="none" data-name="사각형 1348" transform="translate(297 660.001)"/><g id="그룹_1810" data-name="그룹 1810" transform="translate(-1876.53 -2620.848) rotate(45)"><path id="패스_1581" fill="none" stroke="#3ab793" stroke-linecap="round" stroke-linejoin="round" stroke-width="1" d="M3903.624,866.545s-2.829-.063-2.133,3.1a4.993,4.993,0,0,0,.885,1.576s.251-1.42,1.043-1.323c0,0,1.043.205.822,1.628a.841.841,0,0,0,.237.822,2.613,2.613,0,0,1,.364-.917,4.993,4.993,0,0,0,1.059-2.624A2.227,2.227,0,0,0,3903.624,866.545Z" data-name="패스 1581" transform="translate(-24.372 -76.526)"/><path id="패스_1582" fill="none" stroke="#3ab793" stroke-linejoin="round" stroke-width="1" d="M3902.235,773.677a3.276,3.276,0,0,0-.578-1.195l-1.276-1.36c-.789-.869-1.344-.961-1.556-.959s-.768.09-1.556.959l-1.276,1.36a3.284,3.284,0,0,0-.578,1.195,4.677,4.677,0,0,0-.1.8V788.76h7.024V774.473A4.677,4.677,0,0,0,3902.235,773.677Z" data-name="패스 1582" transform="translate(-19.554)"/><line id="선_171" x2="6.412" fill="none" stroke="#3ab793" stroke-linejoin="round" stroke-width="1" data-name="선 171" transform="translate(3876.151 773.181)"/><circle id="타원_155" cx="2.01" cy="2.01" r="2.01" fill="none" stroke="#3ab793" stroke-linejoin="round" stroke-width="1" data-name="타원 155" transform="translate(3877.341 774.936)"/><path id="패스_1584" fill="none" stroke="#3ab793" stroke-linejoin="round" stroke-width="1" d="M3929.8,817.237h5.1v-1.926l-5.1-6.953" data-name="패스 1584" transform="translate(-46.933 -30.326)"/><line id="선_172" x1="5.103" fill="none" stroke="#3ab793" stroke-linejoin="round" stroke-width="1" data-name="선 172" transform="translate(3882.863 784.984)"/><path id="패스_1585" fill="none" stroke="#3ab793" stroke-linejoin="round" stroke-width="1" d="M3875.789,817.237h-5.1v-1.926l5.1-6.953" data-name="패스 1585" transform="translate(0 -30.326)"/><line id="선_173" x2="5.103" fill="none" stroke="#3ab793" stroke-linejoin="round" stroke-width="1" data-name="선 173" transform="translate(3870.686 784.984)"/></g></g></svg>