<svg xmlns="http://www.w3.org/2000/svg" width="32" height="32" viewBox="0 0 32 32"><g id="slashing_ic" transform="translate(-395 -950)"><rect id="사각형_1348" width="32" height="32" fill="none" data-name="사각형 1348" transform="translate(395 950)"/><g id="그룹_1813" data-name="그룹 1813" transform="translate(-3687.433 168.037)"><g id="사각형_1350" fill="none" stroke="#3ab793" stroke-miterlimit="10" stroke-width="1" data-name="사각형 1350" transform="translate(4089.315 803.564)"><rect width="18.236" height="5.224" stroke="none" rx="2.612"/><rect width="17.236" height="4.224" x=".5" y=".5" fill="none" rx="2.112"/></g><g id="그룹_1812" data-name="그룹 1812" transform="translate(4088.432 786.52)"><g id="패스_1586" fill="none" stroke-miterlimit="10" data-name="패스 1586"><path stroke="none" d="M4092.51,804.18v-5.817a7.551,7.551,0,0,1,7.528-7.528h0a7.551,7.551,0,0,1,7.528,7.528v5.817Z" transform="translate(-4090.032 -788.212)"/><path fill="#3ab793" stroke="none" d="M 4106.56689453125 803.1798706054688 L 4106.56689453125 798.3633422851563 C 4106.56689453125 796.6279296875 4105.88525390625 794.9907836914063 4104.6484375 793.7535400390625 C 4103.4111328125 792.516357421875 4101.77392578125 791.8350219726563 4100.03857421875 791.8350219726563 C 4098.30322265625 791.8350219726563 4096.666015625 792.516357421875 4095.428955078125 793.7535400390625 C 4094.191650390625 794.9907836914063 4093.51025390625 796.6279296875 4093.51025390625 798.3633422851563 L 4093.51025390625 803.1798706054688 L 4106.56689453125 803.1798706054688 M 4107.56689453125 804.1798706054688 L 4092.51025390625 804.1798706054688 L 4092.51025390625 798.3633422851563 C 4092.51025390625 794.22265625 4095.8984375 790.8350219726563 4100.03857421875 790.8350219726563 C 4104.1787109375 790.8350219726563 4107.56689453125 794.22265625 4107.56689453125 798.3633422851563 L 4107.56689453125 804.1798706054688 Z" transform="translate(-4090.032 -788.212)"/></g><path id="패스_1587" fill="none" stroke="#3ab793" stroke-linecap="round" stroke-miterlimit="10" stroke-width="1" d="M4099.1,799.308a2.526,2.526,0,0,1,2.527-2.526" data-name="패스 1587" transform="translate(-4092.617 -790.544)"/><line id="선_174" y2="3.024" fill="none" stroke="#3ab793" stroke-linecap="round" stroke-miterlimit="10" stroke-width="1" data-name="선 174" transform="translate(10.007)"/><line id="선_175" x1="3.024" fill="none" stroke="#3ab793" stroke-linecap="round" stroke-miterlimit="10" stroke-width="1" data-name="선 175" transform="translate(16.978 8.764)"/><line id="선_176" x1="3.024" fill="none" stroke="#3ab793" stroke-linecap="round" stroke-miterlimit="10" stroke-width="1" data-name="선 176" transform="translate(0 8.764)"/><line id="선_177" x2="2.129" y2="2.147" fill="none" stroke="#3ab793" stroke-linecap="round" stroke-miterlimit="10" stroke-width="1" data-name="선 177" transform="translate(3.225 2.659)"/><line id="선_178" x1="2.129" y2="2.147" fill="none" stroke="#3ab793" stroke-linecap="round" stroke-miterlimit="10" stroke-width="1" data-name="선 178" transform="translate(14.371 2.496)"/></g></g></g></svg>